# xmcd
#
# Track frame offsets: 
#        150
#        11377
#        24913
#        38585
#        49531
#        56933
#        84677
#        87241
#        108022
#        120441
#        129749
#        137070
#        145828
#
# Disc length: 2271 seconds
#
# Revision: 0
# Processed by: cddbd v1.5.2PL0 Copyright (c) Steve Scherf et al.
# Submitted via: ExactAudioCopy v1.0b3
#
DISCID=a008dd0d
DTITLE=Kalle Sändare - Boxen e' klar - CD 13 - Heta linjen - Live show
DTITLE=på Bacchi Wapen
DYEAR=2014
DGENRE=Comedy
TTITLE0=a) Presentation b) Luftförorening (de' va' ju noll)
TTITLE1=Fotogenkanin till salu
TTITLE2=Telegramrummet
TTITLE3=Turnébussen
TTITLE4=Snoopy's disco show
TTITLE5=Svansjön akt I and II
TTITLE6=Avslutning
TTITLE7=Baseboll med skolöverstyrelsen
TTITLE8=Deutschland Deutschland
TTITLE9=Bröllopslunch
TTITLE10=Scenbygge
TTITLE11=Södermalmspolisen borttappat
TTITLE12=Svart lägenhet önskas i Stockholm
EXTD=
EXTT0=
EXTT1=
EXTT2=
EXTT3=
EXTT4=
EXTT5=
EXTT6=
EXTT7=
EXTT8=
EXTT9=
EXTT10=
EXTT11=
EXTT12=
PLAYORDER=
